<svg xmlns="http://www.w3.org/2000/svg" viewBox="0 0 1113.83 955.85"><defs><style>.cls-1{fill:#fff;}</style></defs><g id="Capa_2" data-name="Capa 2"><g id="Capa_16_copia" data-name="Capa 16 copia"><polygon class="cls-1" points="132.09 40.02 160.85 69.75 174.38 68.41 229.56 123.58 253.45 107.74 219.86 74.14 219.86 61.2 158.65 0 111.87 1.42 132.34 21.25 132.09 40.02"/><polygon class="cls-1" points="483.34 351.84 480.49 351.84 354.18 224.06 252.54 122.42 222.72 137.37 173.84 89.55 161.16 76.87 148.5 76.87 117.32 45.69 117.32 26.16 97.37 6.21 107.54 124.33 87.13 125.58 91.52 183.57 219.81 311.9 374.07 467.67 403.33 468.14 483.36 393.08 483.34 351.84"/><polygon class="cls-1" points="633.21 848.32 544.81 955.85 591.69 955.85 633.21 905.35 633.21 848.32"/><polygon class="cls-1" points="633.21 800.97 633.21 666.35 620.51 638.22 570.45 637.55 484.63 548.68 436 548.68 436 701.16 436.4 734.53 385.93 799.82 385.93 874.65 385.93 876.57 385.93 955.85 528.24 955.85 633.21 828.16 633.21 800.97"/><polygon class="cls-1" points="886.82 334.37 994.39 226.16 997.32 201.77 1074.09 126.58 1074.09 71.37 1012.97 11.52 995.75 11.52 995.75 36.79 966.9 36.79 966.9 91.61 886.13 170.71 886.82 334.37"/><polygon class="cls-1" points="930 40.46 867.75 101.43 867.75 119.04 601.42 379.84 532.5 379.84 532.5 421.09 452.47 496.15 423.21 495.68 433.33 522.77 486 522.77 566.19 601.3 596.79 601.3 719.16 481.47 719.25 481.69 724.57 495.01 827.02 392.56 839.47 363.66 866.02 337.66 866.02 174.37 946.79 95.27 946.79 40.46 930 40.46"/><path class="cls-1" d="M313.72,541.44,46.5,268.45H2l.69,93.11,95.22,98L96.49,560.19l24,24.45v37.7L86.3,657.19l-1.57,22.34L7,758.82v61.93h175.2L263.66,753V726.33l50.06-63.85S315.1,542.85,313.72,541.44Z"/><polygon class="cls-1" points="82.22 461.22 0 376.61 0.01 378.49 0.18 378.66 0.73 459.02 79.81 542.6 81.03 543.85 82.21 461.67 82.22 461.22"/><polygon class="cls-1" points="823.33 693.65 777.93 648.71 778.25 713.78 885.1 818.63 921.74 818.09 823.33 719.68 823.33 693.65"/><polygon class="cls-1" points="1113.83 348.31 1113.83 269.49 1075.66 268.45 932.42 399.89 919.82 429.16 817.37 531.61 812.04 518.29 793.77 536.29 793.77 651.22 839.42 696.87 839.42 722.9 936.85 821.26 1112.99 821.26 1112.99 758.4 1020.03 665.45 991.67 614.78 991.67 580.88 1032.76 539.79 1034.4 425.5 1113.83 348.31"/><polygon class="cls-1" points="1047.44 430.68 1047.12 430.99 1045.74 527.28 1113.83 462.59 1113.83 378.1 1113.83 366.16 1047.44 430.68"/></g></g></svg>